# xmcd
#
# Track frame offsets:
#	150
#	11533
#	27640
#	58978
#	77278
#	102461
#	112975
#	135336
#	155582
#	178175
#	201478
#	219901
#	244378
#	273391
#	290085
#	308110
#	328345
#	340087
#
# Disc length: 4724 seconds
#
# Revision: 5
# Processed by: cddbd v1.5.2PL0 Copyright (c) Steve Scherf et al.
# Submitted via: EZCDAudioConverter 7.1.0.1
#
DISCID=11127212
DTITLE=谭咏麟 - 银河岁月演唱会Live CD Disc2
DYEAR=2015
DGENRE=
TTITLE0=Autumn Feel
TTITLE1=幻影
TTITLE2=最爱的你
TTITLE3=半梦半醒
TTITLE4=此刻你在何处
TTITLE5=Warm Winter
TTITLE6=Medley：ⅰ.墙上的肖像 ⅱ.我没法相信
TTITLE7=凌晨一吻
TTITLE8=变奏
TTITLE9=一个永远不好的伤口
TTITLE10=永不想你
TTITLE11=情凭谁来定错对
TTITLE12=Medley：ⅰ.一点光 ⅱ.点点天地心
TTITLE13=艺海浮台
TTITLE14=珍惜的速度
TTITLE15=一生中的最爱
TTITLE16=银河岁月
TTITLE17=仍爱着你(Patrick／Tess／Janette)
EXTD=
EXTT0=
EXTT1=
EXTT2=
EXTT3=
EXTT4=
EXTT5=
EXTT6=
EXTT7=
EXTT8=
EXTT9=
EXTT10=
EXTT11=
EXTT12=
EXTT13=
EXTT14=
EXTT15=
EXTT16=
EXTT17=
PLAYORDER=
